<svg width="1000" height="509.6677476723064" viewBox="0 0 1000 509.6677476723064" xmlns="http://www.w3.org/2000/svg"><defs/><path fill="#664942" transform="matrix(1.5142929684661055 0 0 1.5142929684661055 -4.257359370081039 -85.32120346852687)" d="M 164.78949750236 277.62963534014 C 146.88949750236 277.62963534014 132.38949750236 292.12963534014 132.38949750236 310.02963534014 C 132.38949750236 327.92963534014 146.88949750236 342.42963534014 164.78949750236 342.42963534014 C 182.68949750236 342.42963534014 197.18949750236 327.92963534014 197.18949750236 310.02963534014 C 197.08949750236 292.12963534014 182.58949750236 277.62963534014 164.78949750236 277.62963534014 Z M 164.78949750236 328.22963534014 C 154.68949750236 328.22963534014 146.48949750236 320.02963534014 146.48949750236 309.92963534014 C 146.48949750236 299.82963534014 154.68949750236 291.62963534014 164.78949750236 291.62963534014 C 174.88949750236 291.62963534014 183.08949750236 299.82963534014 183.08949750236 309.92963534014 C 183.08949750236 320.02963534014 174.88949750236 328.22963534014 164.78949750236 328.22963534014 Z"/><path fill="#664942" transform="matrix(1.5142929684661055 0 0 1.5142929684661055 -4.257359370081039 -85.32120346852687)" d="M 457.48949750236 277.62963534014 C 439.68949750236 277.62963534014 425.18949750236 292.02963534014 425.18949750236 309.92963534014 C 425.18949750236 327.82963534014 439.58949750236 342.22963534014 457.48949750236 342.22963534014 C 475.38949750236 342.22963534014 489.78949750236 327.82963534014 489.78949750236 309.92963534014 C 489.78949750236 292.02963534014 475.28949750236 277.62963534014 457.48949750236 277.62963534014 Z M 457.48949750236 329.22963534014 C 447.38949750236 329.22963534014 439.18949750236 321.02963534014 439.18949750236 310.92963534014 C 439.18949750236 300.82963534014 447.38949750236 292.62963534014 457.48949750236 292.62963534014 C 467.58949750236 292.62963534014 475.78949750236 300.82963534014 475.78949750236 310.92963534014 C 475.68949750236 321.02963534014 467.58949750236 329.22963534014 457.48949750236 329.22963534014 Z"/><path fill="#664942" transform="matrix(1.5142929684661055 0 0 1.5142929684661055 -4.257359370081039 -85.32120346852687)" d="M 545.68949750236 106.82963534014 C 524.88949750236 106.82963534014 215.88949750236 106.82963534014 203.88949750236 106.82963534014 C 191.88949750236 106.82963534014 178.38949750236 107.32963534014 189.08949750236 118.12963534014 L 158.08949750236 214.62963534014 C 158.08949750236 214.62963534014 136.58949750236 220.92963534014 121.08949750236 228.32963534014 C 115.68949750236 230.92963534014 116.88949750236 237.12963534014 116.88949750236 242.72963534014 C 116.88949750236 248.32963534014 116.88949750236 255.02963534014 116.88949750236 255.02963534014 C 116.88949750236 261.72963534014 116.88949750236 273.32963534014 116.88949750236 279.42963534014 C 97.28949750236 286.82963534014 100.98949750236 297.02963534014 105.28949750236 300.22963534014 C 109.68949750236 303.52963534014 124.78949750236 302.02963534014 124.78949750236 302.02963534014 C 127.98949750236 296.72963534014 124.98949750236 291.12963534014 124.98949750236 291.12963534014 C 124.98949750236 291.12963534014 119.68949750236 291.62963534014 113.88949750236 290.92963534014 C 106.88949750236 290.12963534014 112.48949750236 285.02963534014 116.88949750236 283.32963534014 C 116.88949750236 283.52963534014 116.88949750236 283.62963534014 116.88949750236 283.62963534014 C 116.88949750236 283.62963534014 121.48949750236 290.62963534014 131.68949750236 286.12963534014 C 141.88949750236 281.62963534014 137.28949750236 265.72963534014 166.18949750236 268.12963534014 C 195.08949750236 270.62963534014 198.58949750236 293.82963534014 203.18949750236 301.52963534014 C 207.78949750236 309.22963534014 212.38949750236 310.72963534014 230.68949750236 310.72963534014 L 305.98949750236 310.72963534014 L 411.58949750236 310.72963534014 C 411.58949750236 310.72963534014 412.68949750236 264.92963534014 457.38949750236 264.92963534014 C 502.08949750236 264.92963534014 502.48949750236 306.82963534014 502.48949750236 306.82963534014 L 547.58949750236 306.82963534014 C 547.58949750236 306.82963534014 545.78949750236 301.22963534014 552.18949750236 301.22963534014 C 555.38949750236 301.22963534014 558.38949750236 301.22963534014 560.58949750236 301.22963534014 C 562.48949750236 301.22963534014 564.08949750236 299.62963534014 564.08949750236 297.72963534014 L 564.08949750236 240.82963534014 C 563.98949750236 240.82963534014 563.88949750236 240.92963534014 563.78949750236 240.92963534014 C 548.78949750236 244.92963534014 503.68949750236 236.52963534014 458.48949750236 236.52963534014 C 452.08949750236 236.52963534014 445.38949750236 237.42963534014 443.58949750236 241.02963534014 C 439.28949750236 249.32963534014 428.08949750236 255.52963534014 416.88949750236 254.32963534014 C 405.78949750236 253.22963534014 391.08949750236 247.92963534014 384.58949750236 240.02963534014 C 382.48949750236 237.52963534014 381.48949750236 234.92963534014 381.38949750236 232.32963534014 C 381.48949750236 229.72963534014 382.58949750236 227.12963534014 384.58949750236 224.62963534014 C 391.08949750236 216.62963534014 405.78949750236 211.42963534014 416.88949750236 210.32963534014 C 428.08949750236 209.12963534014 439.28949750236 215.32963534014 443.58949750236 223.62963534014 C 445.48949750236 227.22963534014 452.18949750236 228.12963534014 458.68949750236 228.12963534014 C 503.48949750236 228.12963534014 548.68949750236 219.72963534014 563.78949750236 223.72963534014 C 563.88949750236 223.72963534014 563.98949750236 223.82963534014 564.08949750236 223.82963534014 L 564.08949750236 207.72963534014 C 564.08949750236 207.72963534014 564.08949750236 202.02963534014 564.08949750236 193.52963534014 C 563.68949750236 193.72963534014 563.28949750236 193.82963534014 562.78949750236 193.92963534014 C 545.38949750236 198.62963534014 479.08949750236 188.92963534014 419.18949750236 188.92963534014 C 409.28949750236 188.92963534014 410.48949750236 200.12963534014 400.28949750236 202.02963534014 C 390.18949750236 203.92963534014 330.48949750236 200.42963534014 330.48949750236 197.32963534014 C 330.48949750236 195.52963534014 383.28949750236 197.62963534014 383.28949750236 193.62963534014 C 383.28949750236 189.92963534014 330.48949750236 192.02963534014 330.48949750236 188.32963534014 C 330.48949750236 185.02963534014 383.28949750236 188.82963534014 383.28949750236 184.32963534014 C 383.28949750236 179.92963534014 330.48949750236 182.72963534014 330.48949750236 179.32963534014 C 330.48949750236 176.12963534014 383.28949750236 178.82963534014 383.28949750236 175.02963534014 C 383.28949750236 171.22963534014 330.48949750236 172.32963534014 330.48949750236 170.32963534014 C 330.48949750236 168.62963534014 393.18949750236 163.12963534014 402.68949750236 166.92963534014 C 413.28949750236 171.22963534014 410.38949750236 179.12963534014 418.68949750236 179.12963534014 C 478.78949750236 179.02963534014 539.68949750236 167.92963534014 562.78949750236 174.12963534014 C 563.28949750236 174.22963534014 563.68949750236 174.42963534014 564.08949750236 174.62963534014 C 564.08949750236 165.02963534014 564.08949750236 154.82963534014 564.08949750236 146.12963534014 C 563.98949750236 146.12963534014 563.78949750236 146.22963534014 563.68949750236 146.22963534014 C 546.48949750236 150.62963534014 501.88949750236 142.42963534014 462.68949750236 140.02963534014 C 450.18949750236 142.32963534014 450.48949750236 153.32963534014 428.18949750236 153.02963534014 C 404.08949750236 152.72963534014 357.68949750236 146.92963534014 348.08949750236 133.52963534014 C 346.88949750236 131.82963534014 347.78949750236 130.32963534014 349.88949750236 130.32963534014 C 366.38949750236 130.62963534014 454.28949750236 131.52963534014 458.68949750236 131.62963534014 C 461.68949750236 131.62963534014 464.48949750236 131.62963534014 467.28949750236 131.62963534014 C 473.58949750236 131.22963534014 482.58949750236 130.62963534014 483.58949750236 130.62963534014 C 510.98949750236 128.32963534014 548.78949750236 124.72963534014 563.88949750236 129.02963534014 C 563.98949750236 129.02963534014 563.98949750236 129.02963534014 564.08949750236 129.12963534014 C 564.08949750236 126.92963534014 564.08949750236 125.42963534014 564.08949750236 124.82963534014 C 563.98949750236 118.52963534014 566.38949750236 106.82963534014 545.68949750236 106.82963534014 Z M 199.48949750236 212.22963534014 C 199.48949750236 213.22963534014 198.68949750236 214.02963534014 197.68949750236 214.02963534014 L 174.28949750236 214.02963534014 C 173.28949750236 214.02963534014 172.08949750236 213.42963534014 171.48949750236 212.62963534014 L 165.98949750236 204.72963534014 C 165.38949750236 203.92963534014 165.28949750236 202.52963534014 165.58949750236 201.62963534014 L 184.38949750236 147.92963534014 C 184.68949750236 147.02963534014 185.78949750236 146.22963534014 186.68949750236 146.22963534014 L 197.68949750236 146.22963534014 C 198.68949750236 146.22963534014 199.48949750236 147.02963534014 199.48949750236 148.02963534014 L 199.48949750236 212.22963534014 Z M 293.88949750236 300.02963534014 C 293.88949750236 303.02963534014 291.38949750236 305.52963534014 288.38949750236 305.52963534014 L 234.38949750236 305.52963534014 C 231.58949750236 305.52963534014 228.28949750236 303.72963534014 226.78949750236 301.32963534014 C 224.48949750236 297.62963534014 203.98949750236 265.42963534014 203.98949750236 258.22963534014 L 203.98949750236 139.92963534014 C 203.98949750236 136.92963534014 206.48949750236 134.42963534014 209.48949750236 134.42963534014 L 288.28949750236 134.42963534014 C 291.28949750236 134.42963534014 293.78949750236 136.92963534014 293.78949750236 139.92963534014 L 293.78949750236 300.02963534014 Z"/><path fill="#664942" transform="matrix(1.5142929684661055 0 0 1.5142929684661055 -4.257359370081039 -85.32120346852687)" d="M 288.38949750236 137.02963534014 L 209.58949750236 137.02963534014 C 207.98949750236 137.02963534014 206.58949750236 138.32963534014 206.58949750236 140.02963534014 L 206.58949750236 258.32963534014 C 206.58949750236 263.22963534014 219.98949750236 285.92963534014 228.98949750236 300.02963534014 C 229.98949750236 301.62963534014 232.58949750236 303.02963534014 234.38949750236 303.02963534014 L 288.38949750236 303.02963534014 C 289.98949750236 303.02963534014 291.38949750236 301.72963534014 291.38949750236 300.02963534014 L 291.38949750236 139.92963534014 C 291.38949750236 138.32963534014 290.08949750236 137.02963534014 288.38949750236 137.02963534014 Z M 286.98949750236 209.72963534014 C 286.98949750236 212.02963534014 285.08949750236 213.92963534014 282.78949750236 213.92963534014 L 216.38949750236 213.92963534014 C 214.08949750236 213.92963534014 212.18949750236 212.02963534014 212.18949750236 209.72963534014 L 212.18949750236 152.02963534014 C 212.18949750236 149.72963534014 214.08949750236 147.82963534014 216.38949750236 147.82963534014 L 282.78949750236 147.82963534014 C 285.08949750236 147.82963534014 286.98949750236 149.72963534014 286.98949750236 152.02963534014 L 286.98949750236 209.72963534014 Z"/></svg>